<?xml version="1.0" standalone="no"?><svg xmlns="http://www.w3.org/2000/svg" viewBox="0 0 1440 320"><path fill="#90C58D" fill-opacity="1" d="M0,160L24,160C48,160,96,160,144,133.3C192,107,240,53,288,37.3C336,21,384,43,432,69.3C480,96,528,128,576,122.7C624,117,672,75,720,85.3C768,96,816,160,864,176C912,192,960,160,1008,128C1056,96,1104,64,1152,69.3C1200,75,1248,117,1296,144C1344,171,1392,181,1416,186.7L1440,192L1440,320L1416,320C1392,320,1344,320,1296,320C1248,320,1200,320,1152,320C1104,320,1056,320,1008,320C960,320,912,320,864,320C816,320,768,320,720,320C672,320,624,320,576,320C528,320,480,320,432,320C384,320,336,320,288,320C240,320,192,320,144,320C96,320,48,320,24,320L0,320Z"></path></svg>