<?xml version="1.0" standalone="no"?><svg xmlns="http://www.w3.org/2000/svg" viewBox="0 0 1440 320"><path fill="#90C58D" fill-opacity="1" d="M0,224L11.4,192C22.9,160,46,96,69,85.3C91.4,75,114,117,137,149.3C160,181,183,203,206,192C228.6,181,251,139,274,117.3C297.1,96,320,96,343,106.7C365.7,117,389,139,411,138.7C434.3,139,457,117,480,117.3C502.9,117,526,139,549,149.3C571.4,160,594,160,617,138.7C640,117,663,75,686,85.3C708.6,96,731,160,754,208C777.1,256,800,288,823,304C845.7,320,869,320,891,282.7C914.3,245,937,171,960,144C982.9,117,1006,139,1029,144C1051.4,149,1074,139,1097,160C1120,181,1143,235,1166,229.3C1188.6,224,1211,160,1234,149.3C1257.1,139,1280,181,1303,197.3C1325.7,213,1349,203,1371,213.3C1394.3,224,1417,256,1429,272L1440,288L1440,0L1428.6,0C1417.1,0,1394,0,1371,0C1348.6,0,1326,0,1303,0C1280,0,1257,0,1234,0C1211.4,0,1189,0,1166,0C1142.9,0,1120,0,1097,0C1074.3,0,1051,0,1029,0C1005.7,0,983,0,960,0C937.1,0,914,0,891,0C868.6,0,846,0,823,0C800,0,777,0,754,0C731.4,0,709,0,686,0C662.9,0,640,0,617,0C594.3,0,571,0,549,0C525.7,0,503,0,480,0C457.1,0,434,0,411,0C388.6,0,366,0,343,0C320,0,297,0,274,0C251.4,0,229,0,206,0C182.9,0,160,0,137,0C114.3,0,91,0,69,0C45.7,0,23,0,11,0L0,0Z"></path></svg>